<svg width="800" height="160" viewBox="0 0 800 160" xmlns="http://www.w3.org/2000/svg">
  <defs>
    <style>
      @import url('https://fonts.googleapis.com/css2?family=Press+Start+2P&amp;display=swap');
      
      .pixel { font-family: 'Press Start 2P', 'Courier New', monospace; image-rendering: pixelated; }
      
      .name-text {
        font-family: 'Press Start 2P', monospace;
        font-size: 32px;
        fill: #e8c87a;
        filter: url(#glow-gold);
      }
      .sub-text {
        font-family: 'Press Start 2P', monospace;
        font-size: 11px;
        fill: #7ecfff;
      }
      .cursor {
        fill: #e8c87a;
        animation: blink 1s step-end infinite;
      }
      @keyframes blink {
        0%, 100% { opacity: 1; }
        50% { opacity: 0; }
      }
      .lantern {
        animation: sway 3s ease-in-out infinite;
        transform-origin: 50% 0%;
      }
      .lantern2 {
        animation: sway 3s ease-in-out infinite;
        animation-delay: -1.5s;
        transform-origin: 50% 0%;
      }
      @keyframes sway {
        0%, 100% { transform: rotate(-6deg); }
        50% { transform: rotate(6deg); }
      }
      .scanline {
        animation: scan 4s linear infinite;
      }
      @keyframes scan {
        0% { transform: translateY(-160px); }
        100% { transform: translateY(160px); }
      }
      .title-appear {
        animation: typeIn 0.8s steps(1) forwards;
      }
      @keyframes typeIn {
        from { opacity: 0; }
        to { opacity: 1; }
      }
      .glow-pulse {
        animation: glowPulse 2s ease-in-out infinite;
      }
      @keyframes glowPulse {
        0%, 100% { filter: url(#glow-gold); }
        50% { filter: url(#glow-gold-bright); }
      }
      .star {
        animation: twinkle 2s ease-in-out infinite;
      }
      .star2 { animation: twinkle 2s ease-in-out infinite; animation-delay: -0.7s; }
      .star3 { animation: twinkle 2s ease-in-out infinite; animation-delay: -1.4s; }
      @keyframes twinkle {
        0%, 100% { opacity: 1; transform: scale(1); }
        50% { opacity: 0.3; transform: scale(0.7); }
      }
      .pixel-rain rect {
        animation: fall linear infinite;
      }
      @keyframes fall {
        from { transform: translateY(-10px); opacity: 1; }
        to { transform: translateY(160px); opacity: 0; }
      }
    </style>
    <filter id="glow-gold" x="-30%" y="-30%" width="160%" height="160%">
      <feGaussianBlur stdDeviation="3" result="blur"/>
      <feMerge><feMergeNode in="blur"/><feMergeNode in="SourceGraphic"/></feMerge>
    </filter>
    <filter id="glow-gold-bright" x="-40%" y="-40%" width="180%" height="180%">
      <feGaussianBlur stdDeviation="6" result="blur"/>
      <feColorMatrix in="blur" type="matrix" values="1 0.8 0 0 0  0.8 0.6 0 0 0  0 0 0 0 0  0 0 0 1 0" result="colored"/>
      <feMerge><feMergeNode in="colored"/><feMergeNode in="SourceGraphic"/></feMerge>
    </filter>
    <filter id="glow-blue">
      <feGaussianBlur stdDeviation="3" result="blur"/>
      <feMerge><feMergeNode in="blur"/><feMergeNode in="SourceGraphic"/></feMerge>
    </filter>
    <linearGradient id="bg-grad" x1="0" y1="0" x2="0" y2="1">
      <stop offset="0%" stop-color="#1a1228"/>
      <stop offset="100%" stop-color="#0d1a2e"/>
    </linearGradient>
    <clipPath id="clip-main">
      <rect width="800" height="160"/>
    </clipPath>
  </defs>

  <!-- Background -->
  <rect width="800" height="160" fill="url(#bg-grad)"/>
  
  <!-- Pixel grid overlay (subtle) -->
  <rect width="800" height="160" fill="none" stroke="#ffffff" stroke-width="0.3" opacity="0.03"/>

  <!-- Scanline effect -->
  <g clip-path="url(#clip-main)">
    <rect class="scanline" x="0" y="0" width="800" height="3" fill="white" opacity="0.04"/>
  </g>

  <!-- Stars -->
  <rect class="star" x="42" y="12" width="2" height="2" fill="#ffffff"/>
  <rect class="star2" x="120" y="8" width="2" height="2" fill="#7ecfff"/>
  <rect class="star3" x="680" y="15" width="2" height="2" fill="#ffffff"/>
  <rect class="star" x="750" y="9" width="2" height="2" fill="#e8c87a"/>
  <rect class="star2" x="310" y="6" width="2" height="2" fill="#ffffff"/>
  <rect class="star3" x="580" y="11" width="2" height="2" fill="#7ecfff"/>
  <rect class="star" x="200" y="20" width="2" height="2" fill="#ffffff"/>

  <!-- Pixel lanterns left -->
  <g class="lantern" transform="translate(60, 30)">
    <rect x="-6" y="0" width="12" height="16" fill="#e05050" rx="2"/>
    <rect x="-4" y="2" width="8" height="3" fill="#ff8080" opacity="0.5"/>
    <rect x="-3" y="-4" width="6" height="5" fill="#888"/>
    <circle cx="0" cy="8" r="5" fill="#ff6060" opacity="0.3" filter="url(#glow-blue)"/>
    <circle cx="0" cy="8" r="3" fill="#ffaa88" opacity="0.4"/>
  </g>
  <g class="lantern2" transform="translate(95, 25)">
    <rect x="-4" y="0" width="8" height="11" fill="#7ecfff" rx="2"/>
    <rect x="-2" y="2" width="5" height="2" fill="#aaeeff" opacity="0.6"/>
    <rect x="-2" y="-3" width="4" height="4" fill="#666"/>
    <circle cx="0" cy="6" r="4" fill="#7ecfff" opacity="0.3" filter="url(#glow-blue)"/>
  </g>
  
  <!-- Pixel lanterns right -->
  <g class="lantern" transform="translate(720, 28)">
    <rect x="-6" y="0" width="12" height="16" fill="#e05050" rx="2"/>
    <rect x="-4" y="2" width="8" height="3" fill="#ff8080" opacity="0.5"/>
    <rect x="-3" y="-4" width="6" height="5" fill="#888"/>
    <circle cx="0" cy="8" r="5" fill="#ff6060" opacity="0.3" filter="url(#glow-blue)"/>
  </g>
  <g class="lantern2" transform="translate(750, 22)">
    <rect x="-4" y="0" width="8" height="11" fill="#7ecfff" rx="2"/>
    <rect x="-2" y="2" width="5" height="2" fill="#aaeeff" opacity="0.6"/>
    <rect x="-2" y="-3" width="4" height="4" fill="#666"/>
    <circle cx="0" cy="6" r="4" fill="#7ecfff" opacity="0.3"/>
  </g>

  <!-- Decorative pixel border top -->
  <rect x="0" y="0" width="800" height="4" fill="#e05050" opacity="0.6"/>
  <rect x="0" y="4" width="800" height="2" fill="#7ecfff" opacity="0.3"/>

  <!-- Main name -->
  <text class="glow-pulse name-text" x="400" y="82" text-anchor="middle" font-family="'Press Start 2P', monospace" font-size="34" fill="#e8c87a">CaioB1ima</text>
  
  <!-- Cursor after name -->
  <rect class="cursor" x="606" y="52" width="18" height="34"/>

  <!-- Subtitle -->
  <text x="400" y="115" text-anchor="middle" font-family="'Press Start 2P', monospace" font-size="10" fill="#7ecfff">[ CS STUDENT · FULL STACK DEV · PIXEL ENJOYER ]</text>

  <!-- Bottom pixel border -->
  <rect x="0" y="154" width="800" height="2" fill="#7ecfff" opacity="0.3"/>
  <rect x="0" y="156" width="800" height="4" fill="#e05050" opacity="0.6"/>

  <!-- Corner decorations pixel style -->
  <rect x="10" y="10" width="8" height="2" fill="#e8c87a" opacity="0.7"/>
  <rect x="10" y="10" width="2" height="8" fill="#e8c87a" opacity="0.7"/>
  <rect x="782" y="10" width="8" height="2" fill="#e8c87a" opacity="0.7"/>
  <rect x="788" y="10" width="2" height="8" fill="#e8c87a" opacity="0.7"/>
  <rect x="10" y="148" width="8" height="2" fill="#e8c87a" opacity="0.7"/>
  <rect x="10" y="142" width="2" height="8" fill="#e8c87a" opacity="0.7"/>
  <rect x="782" y="148" width="8" height="2" fill="#e8c87a" opacity="0.7"/>
  <rect x="788" y="142" width="2" height="8" fill="#e8c87a" opacity="0.7"/>
</svg>
